<!--?xml version="1.0" encoding="utf-8"?-->
<!-- Generator: Adobe Illustrator 22.1.0, SVG Export Plug-In . SVG Version: 6.00 Build 0)  -->
<svg version="1.1" id="_x38_" xmlns="http://www.w3.org/2000/svg" xmlns:xlink="http://www.w3.org/1999/xlink" x="0px" y="0px" viewBox="0 0 718 800" style="width: 250px;" xml:space="preserve">
<style type="text/css">
	.st0{fill:url(#SVGID_1_);}
	.st1{fill:url(#SVGID_2_);}
	.st2{fill:url(#SVGID_3_);}
	.st3{fill:url(#SVGID_4_);}
	.st4{fill:#E29610;}
	.st5{fill:url(#SVGID_5_);}
	.st6{fill:url(#SVGID_6_);}
	.st7{fill:url(#SVGID_7_);}
	.st8{fill:url(#SVGID_8_);}
	.st9{fill:url(#SVGID_9_);}
	.st10{fill:url(#SVGID_10_);}
	.st11{fill:url(#SVGID_11_);}
	.st12{fill:url(#SVGID_12_);}
	.st13{fill:url(#SVGID_13_);}
	.st14{fill:url(#SVGID_14_);}
	.st15{fill:url(#SVGID_15_);}
	.st16{fill:url(#SVGID_16_);}
	.st17{fill:url(#SVGID_17_);}
	.st18{fill:url(#SVGID_18_);}
	.st19{fill:url(#SVGID_19_);}
	.st20{fill:url(#SVGID_20_);}
	.st21{fill:url(#SVGID_21_);}
	.st22{fill:url(#SVGID_22_);}
	.st23{fill:url(#SVGID_23_);}
	.st24{fill:url(#SVGID_24_);}
	.st25{fill:url(#SVGID_25_);}
	.st26{fill:url(#SVGID_26_);}
	.st27{fill:url(#SVGID_27_);}
	.st28{fill:url(#SVGID_28_);}
	.st29{fill:url(#SVGID_29_);}
	.st30{fill:url(#SVGID_30_);}
	.st31{fill:url(#SVGID_31_);}
	.st32{fill:url(#SVGID_32_);}
	.st33{fill:url(#SVGID_33_);}
	.st34{fill:url(#SVGID_34_);}
	.st35{fill:url(#SVGID_35_);}
	.st36{fill:url(#SVGID_36_);}
	.st37{fill:url(#SVGID_37_);}
	.st38{fill:url(#SVGID_38_);}
	.st39{fill:url(#SVGID_39_);}
	.st40{fill:url(#SVGID_40_);}
	.st41{fill:#994823;}
	.st42{fill:#FCE391;}
	.st43{fill:url(#SVGID_41_);}
	.st44{fill:url(#SVGID_42_);}
	.st45{fill:url(#SVGID_43_);}
	.st46{fill:url(#SVGID_44_);}
	.st47{fill:url(#SVGID_45_);}
</style>
<g>
	<g>
		
			<linearGradient id="SVGID_1_" gradientUnits="userSpaceOnUse" x1="252.0937" y1="-994.9845" x2="466.2552" y2="-1482.5433" gradientTransform="matrix(1 0 0 -1 0 -814)">
			<stop offset="0" style="stop-color:#FFDA82"></stop>
			<stop offset="6.670000e-02" style="stop-color:#FFBD67"></stop>
			<stop offset="0.2242" style="stop-color:#FFC870"></stop>
			<stop offset="0.4061" style="stop-color:#FFF29B"></stop>
			<stop offset="0.8667" style="stop-color:#FFB861"></stop>
			<stop offset="0.9576" style="stop-color:#F59442"></stop>
		</linearGradient>
		<path class="st0" d="M359,676c-67.2,0-130.4-26.2-177.9-73.7c-47.5-47.5-73.7-110.7-73.7-177.9s26.2-130.4,73.7-177.9
			c47.5-47.5,110.7-73.7,177.9-73.7c67.2,0,130.4,26.2,177.9,73.7c47.5,47.5,73.7,110.7,73.7,177.9c0,67.2-26.2,130.4-73.7,177.9
			C489.4,649.9,426.2,676,359,676z"></path>
		
			<linearGradient id="SVGID_2_" gradientUnits="userSpaceOnUse" x1="359.0239" y1="-977.0238" x2="359.0239" y2="-1504.1729" gradientTransform="matrix(1 0 0 -1 0 -814)">
			<stop offset="0" style="stop-color:#E16A2B"></stop>
			<stop offset="3.030000e-02" style="stop-color:#FFDA82"></stop>
			<stop offset="6.670000e-02" style="stop-color:#FFBD67"></stop>
			<stop offset="0.1326" style="stop-color:#FFEB99"></stop>
			<stop offset="0.2242" style="stop-color:#FFC870"></stop>
			<stop offset="0.4696" style="stop-color:#FFF29B"></stop>
			<stop offset="0.5028" style="stop-color:#9C4518"></stop>
			<stop offset="0.7569" style="stop-color:#FFC870"></stop>
			<stop offset="1" style="stop-color:#FFC773"></stop>
		</linearGradient>
		<circle class="st1" cx="359" cy="424.4" r="246.9"></circle>
		
			<linearGradient id="SVGID_3_" gradientUnits="userSpaceOnUse" x1="648.5991" y1="-1527.9955" x2="181.6974" y2="-1061.0939" gradientTransform="matrix(1 0 0 -1 0 -814)">
			<stop offset="0" style="stop-color:#7B1B00"></stop>
			<stop offset="6.670000e-02" style="stop-color:#996E37"></stop>
			<stop offset="0.1939" style="stop-color:#EB9154"></stop>
			<stop offset="1" style="stop-color:#963014"></stop>
		</linearGradient>
		<circle class="st2" cx="359" cy="424.4" r="227.6"></circle>
		
			<linearGradient id="SVGID_4_" gradientUnits="userSpaceOnUse" x1="127.5215" y1="-1006.9169" x2="570.5052" y2="-1449.9008" gradientTransform="matrix(1 0 0 -1 0 -814)">
			<stop offset="0" style="stop-color:#FFDA82"></stop>
			<stop offset="6.670000e-02" style="stop-color:#FFBD67"></stop>
			<stop offset="0.2242" style="stop-color:#FFC870"></stop>
			<stop offset="0.4061" style="stop-color:#FFF29B"></stop>
			<stop offset="0.8667" style="stop-color:#FFB861"></stop>
			<stop offset="0.9576" style="stop-color:#F59442"></stop>
		</linearGradient>
		<circle class="st3" cx="359" cy="424.4" r="222.2"></circle>
	</g>
	<g>
		<path class="st4" d="M440.1,796c-0.1,0-0.3,0-0.4-0.1c-8.5-2-17.3-3.8-25.8-5.6c-5.5-1.2-11.1-2.3-16.6-3.5
			c-10.8-2.3-20.6-4.6-30.1-6.9c-2.8-0.7-5.5-1.4-8.3-2.1c-12.3,3.1-25.2,6.1-38.3,9c-5.3,1.2-10.7,2.3-16,3.4
			c-8.7,1.8-17.6,3.7-26.3,5.7c-0.1,0-0.3,0.1-0.4,0.1c-0.9,0-1.7-0.6-1.9-1.5l-2.1-9.1c-0.1-0.5,0-1,0.2-1.5
			c0.3-0.4,0.7-0.7,1.2-0.9c8.9-2,17.9-3.9,26.6-5.7c5.3-1.1,10.6-2.2,15.9-3.3c5-1.1,9.9-2.1,14.9-3.3
			c-21.2-6.2-41.8-13.2-61.2-21.1c-12-5-21.4-9.2-30-13.3c-4.3,10.9-15.9,17.6-31.1,17.9l-0.7,0c-13.3,0-26.4-8.1-34.9-21.6
			c-0.3-0.5-0.4-1-0.2-1.5c0.1-0.5,0.5-1,0.9-1.2c2.1-1.2,4.2-2.8,6.4-4.5c4.6-3.7,10.3-8.1,19.4-10.7c-2.5-1.5-5.1-3.2-8-5
			c-3.5-2.2-6.9-4.6-10.3-6.9c-0.1,0.2-0.1,0.4-0.3,0.6c-5.1,7.6-13.9,11.8-24.9,11.8c-3.1,0-6.3-0.3-9.6-1
			c-13.3-2.7-24.5-13.5-30-28.9c-0.2-0.5-0.1-1.1,0.1-1.5c0.2-0.5,0.7-0.8,1.2-1c2.3-0.7,4.7-1.8,7.3-3c5.1-2.4,11.3-5.4,20.3-6.1
			c-4.6-4.3-9-8.7-13.3-13.2c-4.8,4.1-11.2,6.2-18.6,6.2c-4.1,0-8.5-0.7-12.8-1.9c-12.8-3.8-22.8-15.3-26.9-30.8
			c-0.1-0.5-0.1-1.1,0.2-1.5c0.3-0.5,0.7-0.8,1.3-0.9c2.3-0.5,4.8-1.4,7.3-2.3c5.3-2,11.3-4.2,19.8-4.2c0.3,0,0.5,0,0.8,0
			c-1.9-2.7-3.7-5.4-5.5-8c-2.5-3.7-4.8-7.5-7-11.1c-4.4,3.3-9.7,4.9-15.7,4.9c-7,0-13.3-2.2-17.4-4.1
			c-12.1-5.6-20.4-18.4-22.2-34.3c-0.1-0.5,0.1-1.1,0.4-1.5c0.3-0.4,0.8-0.7,1.4-0.7c2.4-0.1,4.9-0.7,7.6-1.3
			c3.9-0.9,8.4-1.8,13.7-1.8c4.3,0,8.5,0.6,13,1.9c-0.8-1.9-1.7-3.8-2.5-5.7c-0.7-1.6-1.4-3.2-2-4.8c-0.9-2.2-1.7-4.3-2.5-6.4
			c-0.4-1.1-0.9-2.3-1.3-3.4c-3.4,1.8-7.1,2.7-11.1,2.7c-7.2,0-15.1-3-22.2-8.5c-10.4-8-15.5-22.1-13.7-37.7c0.1-0.5,0.3-1,0.8-1.3
			c0.3-0.3,0.7-0.4,1.2-0.4c0.1,0,0.2,0,0.3,0c2.3,0.4,4.8,0.4,7.5,0.4c6.5,0.1,14.5,0.1,24.6,5.4l-0.1-0.4l-0.7-2.7l-2.6-10.6
			c-0.5-2.1-0.9-4.1-1.4-6.1c-2.2,0.7-4.6,1.1-6.9,1.1c-10.6,0-19.3-6.8-23.5-10.9c-9.2-8.9-12.6-23.2-9.2-38.3
			c0.1-0.5,0.4-1,0.9-1.2c0.3-0.2,0.6-0.3,1-0.3c0.2,0,0.4,0,0.5,0.1c2.2,0.6,4.7,1,7.3,1.3c6.2,0.8,13.9,1.7,22.9,7.7
			c-0.7-5.8-1.4-11.6-2-17.5c-1.1,0.2-2.2,0.2-3.3,0.2c-8.6,0-17.5-5-24.4-13.7c-7.8-9.8-9.4-24.2-4.1-38.4c0.2-0.5,0.6-0.9,1.1-1.1
			c0.2-0.1,0.5-0.2,0.8-0.2c0.3,0,0.5,0.1,0.8,0.2c2,0.9,4.4,1.5,6.9,2.1c5.6,1.4,12.3,3.1,19.8,9c0-0.9-0.1-1.8-0.1-2.7L36.2,376
			c-0.8,0.1-1.7,0.1-2.5,0.1c-9,0-18-5.6-24.6-15.3c-6.9-10.2-7.4-24.4-1.2-37.9c0.2-0.5,0.6-0.9,1.1-1c0.2-0.1,0.4-0.1,0.6-0.1
			c0.3,0,0.6,0.1,0.9,0.2c1.9,1,4.2,1.8,6.6,2.6c5.6,1.9,12.5,4.2,19.8,11.3c0.1-1.3,0.2-2.6,0.2-3.9l0.4-7.1
			c-8.9-5.4-13.2-16.5-11.6-30c1.5-12.3,10.4-23.2,24-29.4c0.3-0.1,0.5-0.2,0.8-0.2c0.3,0,0.5,0,0.7,0.1c0.5,0.2,0.9,0.6,1.1,1.1
			c0.8,2,2,4.1,3.3,6.3c3.2,5.5,7.3,12.5,7.6,24.2c0.3,11.2-5.8,22.4-14.4,26.7l-0.5,8.7c-0.1,1.2-0.1,2.4-0.2,3.6
			c0,0.4,0,0.8-0.1,1.2c7-6.5,17-10.2,28.4-10.2c0,0,0,0,0,0c0.5,0,1,0.2,1.4,0.6c0.4,0.4,0.6,0.9,0.5,1.4c-0.1,2.2,0.1,4.6,0.4,7.1
			c0.7,6.4,1.5,14.3-3,25.1c-4.4,10.5-15.1,18.4-24.9,18.4c-1.1,0-2.3-0.1-3.3-0.3l0.1,6.7c0.1,2.1,0.1,4.1,0.2,6.1
			c6.5-7.9,17.1-13,29.3-14c0.1,0,0.1,0,0.1,0c0.5,0,0.9,0.2,1.3,0.5c0.4,0.4,0.6,0.9,0.6,1.4c0,2.2,0.5,4.6,0.9,7.2
			c1.2,6.4,2.6,14.5-1.1,25.8c-3.4,10.2-13.8,20.7-25.3,20.7c-1,0-2.1-0.1-3.1-0.3c0.5,4.6,1,9.1,1.6,13.6
			c5.7-8,15.2-13.8,26.6-16.2c0.1,0,0.3,0,0.4,0c0.4,0,0.8,0.1,1.1,0.3c0.4,0.3,0.7,0.8,0.8,1.3c0.3,2.3,1.1,4.6,1.9,7.2
			c2,6.4,4.6,14.3,2.2,26.2c-2.3,11.7-12.6,24.4-25.2,24.4c-0.1,0-0.1,0-0.2,0c0.2,0.7,0.3,1.4,0.5,2.1l3.2,13.1l0.1,0.3
			c4.9-8.6,13.8-15.4,24.9-19.1c0.2-0.1,0.4-0.1,0.6-0.1c0.3,0,0.6,0.1,0.9,0.2c0.5,0.3,0.8,0.7,0.9,1.2c0.6,2.3,1.6,4.6,2.7,7
			c2.8,6.2,6.3,13.9,5.3,26.3c-0.9,12-9.6,25.2-21.3,27.4c0.6,1.6,1.3,3.3,1.9,4.9c0.7,1.6,1.4,3.2,2.1,4.8c0.4,1,0.9,2.1,1.3,3.1
			c3.2-9.2,10.2-17.6,20-23.5c0.3-0.2,0.7-0.3,1-0.3c0.2,0,0.3,0,0.5,0.1c0.5,0.1,0.9,0.5,1.2,1c1.1,2.1,2.7,4.2,4.3,6.4
			c4.2,5.5,9.4,12.4,11.2,24.9c1.9,13-4.5,28.8-16.7,32.7c1.4,2.2,3,4.8,4.7,7.3c3.1,4.7,6.3,9.3,9.5,13.6c-0.2-11.9,6-24,17.1-33.1
			c0.3-0.3,0.8-0.4,1.2-0.4c0.1,0,0.2,0,0.2,0c0.5,0.1,1,0.4,1.3,0.8c1.4,1.9,3.2,3.8,5.2,5.7c4.9,4.9,11.1,10.9,14.7,23.1
			c2.6,8.6,1.4,18.9-3,26.3c-2.5,4.3-6,7.3-10,9c5,5.1,10.3,10.1,15.7,14.9c-0.8-11.7,4.4-24.1,14.5-34c0.4-0.4,0.8-0.6,1.4-0.6
			c0,0,0.1,0,0.1,0c0.5,0,1,0.3,1.4,0.7c1.6,1.8,3.6,3.5,5.8,5.3c5.4,4.5,12.2,10.1,17,22.1c4.1,10.3,3.1,24.9-5.1,33.2
			c1.2,0.8,2.4,1.6,3.5,2.3c4.2,2.6,8.7,5.4,13.3,8.1c-2.9-11-0.5-23.9,6.9-35.3c0.3-0.4,0.8-0.8,1.3-0.9c0.1,0,0.2,0,0.3,0
			c0.4,0,0.8,0.1,1.1,0.4c2,1.4,4.3,2.7,6.8,3.9c6.3,3.2,14.1,7.2,21.4,17.9c6.4,9.4,8.6,24.7,1.7,34.5c6.7,3.1,14,6.3,23.4,10.1
			c25.6,10.2,53.1,19.1,81.7,26.4l0.9,0.2l1-0.2c28.6-7.2,56.1-16.1,81.7-26.4c8.5-3.5,16.2-6.8,23.3-10.1
			c-6.9-9.8-4.7-25.1,1.7-34.5c7.2-10.6,15.1-14.6,21.4-17.9c2.5-1.3,4.9-2.5,6.8-3.9c0.3-0.2,0.7-0.4,1.1-0.4c0.1,0,0.2,0,0.3,0
			c0.5,0.1,1,0.4,1.3,0.9c7.4,11.5,9.9,24.3,6.9,35.3c4.9-2.9,9.6-5.8,13.3-8.1c1.2-0.8,2.3-1.5,3.5-2.3c-8.2-8.3-9.1-22.9-5.1-33.2
			c4.7-12,11.5-17.6,17-22.1c2.2-1.8,4.2-3.5,5.8-5.3c0.3-0.4,0.8-0.6,1.4-0.7c0,0,0.1,0,0.1,0c0.5,0,1,0.2,1.4,0.6
			c10.1,9.9,15.3,22.3,14.5,34c5.4-4.8,10.6-9.7,15.7-14.9c-4.1-1.6-7.5-4.7-10-9c-4.4-7.4-5.6-17.7-3-26.3
			c3.6-12.1,9.7-18.2,14.7-23.1c2-1.9,3.8-3.8,5.2-5.7c0.3-0.4,0.8-0.7,1.3-0.8c0.1,0,0.2,0,0.2,0c0.4,0,0.9,0.2,1.2,0.4
			c11.1,9.1,17.2,21.2,17.1,33.1c3.2-4.4,6.4-8.9,9.5-13.5c1.7-2.5,3.4-5.1,4.7-7.3c-12.2-3.9-18.6-19.7-16.7-32.7
			c1.8-12.5,7-19.4,11.2-24.9c1.7-2.2,3.2-4.3,4.3-6.4c0.2-0.5,0.7-0.8,1.2-1c0.2,0,0.3-0.1,0.5-0.1c0.3,0,0.7,0.1,1,0.3
			c9.8,5.9,16.9,14.3,20,23.5c0.4-1,0.9-2,1.3-3c0.7-1.6,1.4-3.3,2.1-4.9c0.6-1.6,1.3-3.2,1.9-4.8c-11.7-2.2-20.4-15.3-21.3-27.4
			c-1-12.4,2.5-20.1,5.3-26.3c1.1-2.5,2.2-4.8,2.7-7c0.1-0.5,0.5-1,0.9-1.2c0.3-0.2,0.6-0.2,0.9-0.2c0.2,0,0.4,0,0.6,0.1
			c11.1,3.7,20,10.5,24.9,19.1l0.1-0.3l3.2-13c0.2-0.7,0.3-1.4,0.5-2.1c-0.1,0-0.1,0-0.2,0c-12.6,0-22.9-12.7-25.2-24.4
			c-2.3-11.9,0.2-19.9,2.2-26.2c0.8-2.5,1.6-4.9,1.9-7.2c0.1-0.5,0.4-1,0.8-1.3c0.3-0.2,0.7-0.3,1.1-0.3c0.1,0,0.3,0,0.4,0
			c11.5,2.4,20.9,8.2,26.6,16.2c0.6-4.5,1.1-9.1,1.6-13.6c-1,0.2-2,0.3-3,0.3c-11.5,0-21.9-10.5-25.3-20.7
			c-3.8-11.3-2.3-19.3-1.1-25.8c0.5-2.5,0.9-4.9,0.9-7.2c0-0.5,0.2-1,0.6-1.4c0.4-0.3,0.8-0.5,1.3-0.5c0,0,0.1,0,0.1,0
			c12.2,0.9,22.7,6,29.3,14c0.1-2,0.2-4.1,0.2-6.1l0.1-6.7c-1.1,0.2-2.2,0.3-3.3,0.3c-9.8,0-20.5-7.9-24.9-18.4
			c-4.5-10.8-3.7-18.8-3-25.1c0.3-2.5,0.5-4.9,0.4-7.1c0-0.5,0.2-1.1,0.5-1.4c0.4-0.4,0.9-0.6,1.4-0.6c0,0,0,0,0,0
			c11.4,0,21.4,3.7,28.4,10.2c0-0.4,0-0.9-0.1-1.3c-0.1-1.2-0.1-2.4-0.2-3.6l-0.5-8.7c-8.6-4.3-14.7-15.5-14.4-26.7
			c0.3-11.7,4.4-18.6,7.6-24.2c1.3-2.2,2.5-4.3,3.3-6.3c0.2-0.5,0.6-0.9,1.1-1.1c0.2-0.1,0.5-0.1,0.7-0.1c0.3,0,0.5,0.1,0.8,0.2
			c13.5,6.1,22.5,17.1,24,29.4c1.6,13.5-2.7,24.6-11.6,30l0.4,7.1c0.1,1.2,0.1,2.4,0.2,3.6c0,0.1,0,0.2,0,0.2
			c7.3-7.1,14.1-9.4,19.8-11.3c2.4-0.8,4.7-1.6,6.6-2.6c0.3-0.2,0.6-0.2,0.9-0.2c0.2,0,0.4,0,0.6,0.1c0.5,0.2,0.9,0.5,1.1,1
			c6.2,13.5,5.7,27.7-1.2,37.9c-6.6,9.8-15.6,15.3-24.6,15.3c-0.8,0-1.7,0-2.5-0.1l-0.1,10.7c0,0.9-0.1,1.8-0.1,2.7
			c7.5-5.9,14.2-7.6,19.8-9c2.5-0.6,4.9-1.2,6.9-2.1c0.2-0.1,0.5-0.2,0.8-0.2c0.3,0,0.5,0.1,0.8,0.2c0.5,0.2,0.9,0.6,1.1,1.1
			c5.2,14.2,3.7,28.5-4.1,38.4c-6.9,8.7-15.9,13.7-24.4,13.7c0,0,0,0,0,0c-1.1,0-2.2-0.1-3.3-0.2c-0.6,5.9-1.2,11.8-2,17.5
			c9.1-6,16.7-6.9,22.9-7.7c2.6-0.3,5.1-0.6,7.3-1.3c0.2-0.1,0.4-0.1,0.5-0.1c0.3,0,0.7,0.1,1,0.3c0.5,0.3,0.8,0.7,0.9,1.2
			c3.5,15,0,29.3-9.2,38.3c-4.2,4.1-12.8,10.9-23.5,10.9c-2.4,0-4.7-0.4-7-1.1c-0.4,2-0.9,4.1-1.4,6.1l-3.2,13.3l-0.1,0.5
			c10.1-5.2,18.1-5.3,24.6-5.4c2.7,0,5.2,0,7.5-0.4c0.1,0,0.2,0,0.3,0c0.4,0,0.8,0.1,1.2,0.4c0.4,0.3,0.7,0.8,0.8,1.3
			c1.8,15.6-3.4,29.7-13.7,37.7c-7.1,5.5-15,8.5-22.2,8.5c-3.9,0-7.7-0.9-11.1-2.7c-0.4,1-0.8,2.1-1.2,3.1c-0.8,2.2-1.7,4.5-2.6,6.7
			c-0.7,1.7-1.4,3.4-2.2,5c-0.8,1.8-1.6,3.7-2.4,5.5c4.5-1.3,8.7-1.9,13-1.9c5.4,0,9.8,1,13.7,1.8c2.7,0.6,5.2,1.1,7.6,1.3
			c0.5,0,1,0.3,1.4,0.7c0.3,0.4,0.5,0.9,0.4,1.5c-1.8,15.9-10.1,28.7-22.2,34.3c-4.1,1.9-10.4,4.1-17.4,4.1
			c-6.1,0-11.3-1.6-15.7-4.9c-2.2,3.6-4.5,7.4-7,11.2c-1.7,2.6-3.6,5.3-5.4,8c0.3,0,0.5,0,0.8,0c8.5,0,14.5,2.2,19.8,4.2
			c2.6,1,5,1.9,7.3,2.3c0.5,0.1,1,0.4,1.3,0.9c0.3,0.5,0.4,1,0.2,1.5c-4.1,15.5-14.1,27-26.9,30.8c-4.3,1.3-8.7,1.9-12.8,1.9
			c-7.4,0-13.8-2.2-18.6-6.3c-4.3,4.5-8.7,8.9-13.3,13.2c9,0.7,15.2,3.6,20.3,6.1c2.5,1.2,4.9,2.4,7.3,3c0.5,0.1,0.9,0.5,1.2,1
			c0.2,0.5,0.3,1,0.1,1.5c-5.5,15.4-16.7,26.2-30,28.9c-3.2,0.7-6.4,1-9.6,1c-11,0-19.8-4.2-24.9-11.8c-0.1-0.2-0.2-0.4-0.3-0.7
			c-3.7,2.6-7,4.9-10.3,7c-2.9,1.8-5.5,3.5-8.1,5c9.2,2.6,14.8,7,19.4,10.7c2.2,1.7,4.3,3.4,6.4,4.5c0.5,0.3,0.8,0.7,0.9,1.2
			c0.1,0.5,0,1.1-0.2,1.5c-8.6,13.5-21.6,21.6-34.9,21.6l-0.7,0c-15.2-0.3-26.9-7-31.1-17.9c-8.8,4.3-18.5,8.5-30,13.3
			c-19.4,7.8-40,14.9-61.3,21.1c5,1.1,10,2.2,14.9,3.3c5.4,1.2,10.8,2.3,16.2,3.4c8.6,1.8,17.6,3.7,26.4,5.7
			c0.5,0.1,0.9,0.4,1.2,0.9c0.3,0.4,0.4,1,0.2,1.5l-2.1,9.1C441.8,795.4,441,796,440.1,796z"></path>
		<g>
			
				<linearGradient id="SVGID_5_" gradientUnits="userSpaceOnUse" x1="-46.4726" y1="-1284.4036" x2="628.3977" y2="-1486.864" gradientTransform="matrix(1 0 0 -1 0 -814)">
				<stop offset="0" style="stop-color:#E16A2B"></stop>
				<stop offset="3.030000e-02" style="stop-color:#FFDA82"></stop>
				<stop offset="6.670000e-02" style="stop-color:#FFBD67"></stop>
				<stop offset="0.1326" style="stop-color:#FFEB99"></stop>
				<stop offset="0.2242" style="stop-color:#FFC870"></stop>
				<stop offset="0.4696" style="stop-color:#FFF29B"></stop>
				<stop offset="0.6163" style="stop-color:#C8803F"></stop>
				<stop offset="0.7569" style="stop-color:#FFC870"></stop>
				<stop offset="1" style="stop-color:#FFC773"></stop>
			</linearGradient>
			<path class="st5" d="M440.8,783.6l-2.1,9.1c-14-3.2-28.2-6.1-42.4-9.1c-10-2.2-20-4.4-30-6.9c-4.1-1-8.3-2-12.4-3.1
				c-1.8-0.5-3.5-0.9-5.3-1.4c-26.4-7-52.4-15.4-77.8-25.7c-11-4.6-22-9.3-32.7-14.6c-2.4-1.2-4.8-2.3-7.1-3.6l-9.7-5
				c-3.2-1.8-6.4-3.5-9.6-5.3c-2.3-1.3-4.5-2.6-6.7-3.9c-4.1-2.4-8.1-4.9-12-7.4c-4.4-2.8-8.6-5.7-12.9-8.8
				c-0.8-0.6-1.6-1.2-2.4-1.8c0,0-0.1,0-0.1,0c-1.5-1.1-2.9-2.2-4.4-3.3c0,0,0,0-0.1,0c-7.8-5.8-15.3-12.1-22.5-18.6
				c-6.2-5.6-12.3-11.6-18-17.7c-2.1-2.2-4.2-4.5-6.2-6.8c-6.7-7.6-13-15.5-18.9-23.7v0c-2.7-3.7-5.2-7.4-7.7-11.2
				c-2.9-4.2-5.5-8.6-8.1-13c-1.1-1.9-2.3-3.8-3.4-5.7c-3.5-6.5-7-12.8-10.1-19.5c-0.9-1.8-1.8-3.6-2.6-5.4
				c-2.2-4.8-4.2-9.7-6.4-14.6c-1.4-3.4-2.6-6.8-3.9-10.2l-0.8-2l-1.2-3.1c-0.6-1.7-1.2-3.5-1.8-5.2l-3.4-10.4
				c-1.1-3.5-2-7-3.1-10.5l-0.8-2.8l-0.7-2.5l-0.7-2.6l-0.6-2.7l-2.6-10.6c-0.6-2.7-1.2-5.5-1.8-8.3c-2.4-11.2-4.3-22.4-5.9-33.8v0
				c-1.1-8-2-16-2.7-24c-0.6-6.8-1.1-13.6-1.5-20.5c-0.2-4.9-0.4-9.8-0.6-14.7c-0.1-2.4-0.2-4.8-0.3-7.1l-0.1-13l-0.1-8.8l0.5-21.8
				c0-0.8,0-1.6,0.1-2.4c0.1-2.8,0.3-5.7,0.5-8.5l0.5-8.4l0.1-2.5c0.2-3.7,2-6.6,4.1-6.4c2.1,0.2,3.6,3.2,3.4,6.9l0,0.9l-0.5,9.9
				c-0.2,3.4-0.4,6.8-0.5,10.2c0,0.2,0,0.4,0,0.6l-0.5,21.6l0.1,12.3l0.1,9.3c0.1,4,0.3,7.9,0.5,11.9c0.2,3.2,0.3,6.4,0.4,9.6
				c0,0.1,0,0.2,0,0.2v0c0.2,3.3,0.4,6.5,0.7,9.8c0.3,4.4,0.7,8.9,1.2,13.3c0.7,7.3,1.6,14.6,2.7,21.8c0,0,0,0,0,0
				c1.7,11.9,3.8,23.6,6.4,35.3c0.3,1.6,0.7,3.1,1.1,4.7l2.5,10.5l0.6,2.6l0.7,2.6l0.8,2.7c0,0,0,0,0,0l0.7,2.5
				c1,3.4,1.9,6.9,3,10.3l3.4,10.2c0.6,1.7,1.1,3.4,1.7,5.1l1.9,5c0.4,0.9,0.7,1.8,1.1,2.7c0.9,2.4,1.8,4.9,2.8,7.3
				c1.9,4.4,3.7,8.7,5.7,13.1c1,2.2,2,4.4,3.1,6.5c3,6.5,6.5,12.7,9.9,19c1.7,2.8,3.4,5.7,5.1,8.5c2,3.3,4,6.5,6.2,9.7
				c4.4,6.6,9,13.1,13.8,19.4c0.1,0.2,0.3,0.4,0.5,0.6c3.7,4.8,7.6,9.5,11.7,14c0.6,0.6,1.1,1.2,1.7,1.9c2.1,2.4,4.3,4.7,6.5,7
				c7,7.3,14.3,14.2,22,20.7c9.3,7.9,19,15.3,29.2,22.1h0c1.9,1.3,3.7,2.5,5.6,3.7c5.9,3.7,11.8,7.4,17.9,10.8
				c0.2,0.1,0.3,0.2,0.5,0.3c3.1,1.8,6.3,3.5,9.4,5.2l9.6,4.9c4.5,2.3,9,4.5,13.5,6.6c8.5,4,17,7.6,25.7,11.2
				c26.7,10.7,54.1,19.4,82,26.5c2.6,0.7,5.2,1.3,7.8,2c5.1,1.3,10.2,2.5,15.3,3.6c6.3,1.5,12.6,2.8,19,4.2
				C412.4,777.6,426.6,780.4,440.8,783.6z"></path>
			
				<linearGradient id="SVGID_6_" gradientUnits="userSpaceOnUse" x1="9.45" y1="-1097.9944" x2="684.3239" y2="-1300.4561" gradientTransform="matrix(1 0 0 -1 0 -814)">
				<stop offset="0" style="stop-color:#E16A2B"></stop>
				<stop offset="3.030000e-02" style="stop-color:#FFDA82"></stop>
				<stop offset="6.670000e-02" style="stop-color:#FFBD67"></stop>
				<stop offset="0.1326" style="stop-color:#FFEB99"></stop>
				<stop offset="0.2242" style="stop-color:#FFC870"></stop>
				<stop offset="0.4696" style="stop-color:#FFF29B"></stop>
				<stop offset="0.6163" style="stop-color:#C8803F"></stop>
				<stop offset="0.7569" style="stop-color:#FFC870"></stop>
				<stop offset="1" style="stop-color:#FFC773"></stop>
			</linearGradient>
			<path class="st6" d="M38,322.5c-10.3-5.7-12.7-18.1-11.4-28.5c1.4-11.7,10-22,22.8-27.8c2.9,7.5,10.3,14,10.7,29.8
				C60.5,308.6,51.2,323.9,38,322.5z"></path>
			
				<linearGradient id="SVGID_7_" gradientUnits="userSpaceOnUse" x1="-7.2816" y1="-1153.7661" x2="667.5958" y2="-1356.2288" gradientTransform="matrix(1 0 0 -1 0 -814)">
				<stop offset="0" style="stop-color:#E16A2B"></stop>
				<stop offset="3.030000e-02" style="stop-color:#FFDA82"></stop>
				<stop offset="6.670000e-02" style="stop-color:#FFBD67"></stop>
				<stop offset="0.1326" style="stop-color:#FFEB99"></stop>
				<stop offset="0.2242" style="stop-color:#FFC870"></stop>
				<stop offset="0.4696" style="stop-color:#FFF29B"></stop>
				<stop offset="0.6163" style="stop-color:#C8803F"></stop>
				<stop offset="0.7569" style="stop-color:#FFC870"></stop>
				<stop offset="1" style="stop-color:#FFC773"></stop>
			</linearGradient>
			<path class="st7" d="M36.7,372.4c-11.6,2.5-21.4-5.3-27.4-14c-6.6-9.8-6.9-23.2-1.1-36c7.1,3.8,16.9,3.8,27.7,15.4
				C44.6,347.2,47.6,364.8,36.7,372.4z"></path>
			
				<linearGradient id="SVGID_8_" gradientUnits="userSpaceOnUse" x1="-5.0843" y1="-1146.4412" x2="669.7936" y2="-1348.9042" gradientTransform="matrix(1 0 0 -1 0 -814)">
				<stop offset="0" style="stop-color:#E16A2B"></stop>
				<stop offset="3.030000e-02" style="stop-color:#FFDA82"></stop>
				<stop offset="6.670000e-02" style="stop-color:#FFBD67"></stop>
				<stop offset="0.1326" style="stop-color:#FFEB99"></stop>
				<stop offset="0.2242" style="stop-color:#FFC870"></stop>
				<stop offset="0.4696" style="stop-color:#FFF29B"></stop>
				<stop offset="0.6163" style="stop-color:#C8803F"></stop>
				<stop offset="0.7569" style="stop-color:#FFC870"></stop>
				<stop offset="1" style="stop-color:#FFC773"></stop>
			</linearGradient>
			<path class="st8" d="M41.7,374.6c-7.1-9.5-4.1-21.7,1.3-30.7c6.1-10.1,18.1-16,32.2-16c-0.5,8,3.7,17-2.5,31.6
				C67.9,371.3,53.2,381.4,41.7,374.6z"></path>
			
				<linearGradient id="SVGID_9_" gradientUnits="userSpaceOnUse" x1="-22.6027" y1="-1204.8372" x2="652.2706" y2="-1407.2986" gradientTransform="matrix(1 0 0 -1 0 -814)">
				<stop offset="0" style="stop-color:#E16A2B"></stop>
				<stop offset="3.030000e-02" style="stop-color:#FFDA82"></stop>
				<stop offset="6.670000e-02" style="stop-color:#FFBD67"></stop>
				<stop offset="0.1326" style="stop-color:#FFEB99"></stop>
				<stop offset="0.2242" style="stop-color:#FFC870"></stop>
				<stop offset="0.4696" style="stop-color:#FFF29B"></stop>
				<stop offset="0.6163" style="stop-color:#C8803F"></stop>
				<stop offset="0.7569" style="stop-color:#FFC870"></stop>
				<stop offset="1" style="stop-color:#FFC773"></stop>
			</linearGradient>
			<path class="st9" d="M40.3,427.3c-11.6,3.4-22.2-3.7-28.9-12.2c-7.5-9.4-8.8-23-3.8-36.5c7.5,3.3,17.5,2.5,29.3,13.6
				C46.4,401.1,50.8,418.8,40.3,427.3z"></path>
			
				<linearGradient id="SVGID_10_" gradientUnits="userSpaceOnUse" x1="-19.4298" y1="-1194.2611" x2="655.4432" y2="-1396.7224" gradientTransform="matrix(1 0 0 -1 0 -814)">
				<stop offset="0" style="stop-color:#E16A2B"></stop>
				<stop offset="3.030000e-02" style="stop-color:#FFDA82"></stop>
				<stop offset="6.670000e-02" style="stop-color:#FFBD67"></stop>
				<stop offset="0.1326" style="stop-color:#FFEB99"></stop>
				<stop offset="0.2242" style="stop-color:#FFC870"></stop>
				<stop offset="0.4696" style="stop-color:#FFF29B"></stop>
				<stop offset="0.6163" style="stop-color:#C8803F"></stop>
				<stop offset="0.7569" style="stop-color:#FFC870"></stop>
				<stop offset="1" style="stop-color:#FFC773"></stop>
			</linearGradient>
			<path class="st10" d="M45.6,429.3c-7.9-9.1-5.9-21.7-1-31.3c5.4-10.8,17.2-17.6,31.6-18.8c0.1,8.2,5,17-0.1,32.3
				C71.9,423.9,57.7,435.2,45.6,429.3z"></path>
			
				<linearGradient id="SVGID_11_" gradientUnits="userSpaceOnUse" x1="-38.6457" y1="-1258.3132" x2="636.2258" y2="-1460.774" gradientTransform="matrix(1 0 0 -1 0 -814)">
				<stop offset="0" style="stop-color:#E16A2B"></stop>
				<stop offset="3.030000e-02" style="stop-color:#FFDA82"></stop>
				<stop offset="6.670000e-02" style="stop-color:#FFBD67"></stop>
				<stop offset="0.1326" style="stop-color:#FFEB99"></stop>
				<stop offset="0.2242" style="stop-color:#FFC870"></stop>
				<stop offset="0.4696" style="stop-color:#FFF29B"></stop>
				<stop offset="0.6163" style="stop-color:#C8803F"></stop>
				<stop offset="0.7569" style="stop-color:#FFC870"></stop>
				<stop offset="1" style="stop-color:#FFC773"></stop>
			</linearGradient>
			<path class="st11" d="M48.2,485.3c-11.2,5-22.9-0.9-30.8-8.5c-8.8-8.6-11.9-22.1-8.6-36.4c8,2.4,18,0.3,31.5,9.9
				C51,458,57.7,475.3,48.2,485.3z"></path>
			
				<linearGradient id="SVGID_12_" gradientUnits="userSpaceOnUse" x1="-34.1085" y1="-1243.1896" x2="640.7661" y2="-1445.6514" gradientTransform="matrix(1 0 0 -1 0 -814)">
				<stop offset="0" style="stop-color:#E16A2B"></stop>
				<stop offset="3.030000e-02" style="stop-color:#FFDA82"></stop>
				<stop offset="6.670000e-02" style="stop-color:#FFBD67"></stop>
				<stop offset="0.1326" style="stop-color:#FFEB99"></stop>
				<stop offset="0.2242" style="stop-color:#FFC870"></stop>
				<stop offset="0.4696" style="stop-color:#FFF29B"></stop>
				<stop offset="0.6163" style="stop-color:#C8803F"></stop>
				<stop offset="0.7569" style="stop-color:#FFC870"></stop>
				<stop offset="1" style="stop-color:#FFC773"></stop>
			</linearGradient>
			<path class="st12" d="M53.8,486.5c-9.2-8.1-8.8-21.2-5.1-31.6c4.1-11.6,15.1-20.1,29.5-23.1c1.2,8.3,7.3,16.5,4.1,32.7
				C79.8,477.6,66.9,491,53.8,486.5z"></path>
			
				<linearGradient id="SVGID_13_" gradientUnits="userSpaceOnUse" x1="-54.5116" y1="-1311.198" x2="620.3627" y2="-1513.6597" gradientTransform="matrix(1 0 0 -1 0 -814)">
				<stop offset="0" style="stop-color:#E16A2B"></stop>
				<stop offset="3.030000e-02" style="stop-color:#FFDA82"></stop>
				<stop offset="6.670000e-02" style="stop-color:#FFBD67"></stop>
				<stop offset="0.1326" style="stop-color:#FFEB99"></stop>
				<stop offset="0.2242" style="stop-color:#FFC870"></stop>
				<stop offset="0.4696" style="stop-color:#FFF29B"></stop>
				<stop offset="0.6163" style="stop-color:#C8803F"></stop>
				<stop offset="0.7569" style="stop-color:#FFC870"></stop>
				<stop offset="1" style="stop-color:#FFC773"></stop>
			</linearGradient>
			<path class="st13" d="M63.9,545c-10.8,6.3-23.3,1.8-32.2-5.1c-9.9-7.6-14.7-21.1-13-35.9c8.4,1.5,18.3-1.8,33,6.4
				C63.6,517,72.4,533.8,63.9,545z"></path>
			
				<linearGradient id="SVGID_14_" gradientUnits="userSpaceOnUse" x1="-48.8237" y1="-1292.241" x2="626.0487" y2="-1494.7021" gradientTransform="matrix(1 0 0 -1 0 -814)">
				<stop offset="0" style="stop-color:#E16A2B"></stop>
				<stop offset="3.030000e-02" style="stop-color:#FFDA82"></stop>
				<stop offset="6.670000e-02" style="stop-color:#FFBD67"></stop>
				<stop offset="0.1326" style="stop-color:#FFEB99"></stop>
				<stop offset="0.2242" style="stop-color:#FFC870"></stop>
				<stop offset="0.4696" style="stop-color:#FFF29B"></stop>
				<stop offset="0.6163" style="stop-color:#C8803F"></stop>
				<stop offset="0.7569" style="stop-color:#FFC870"></stop>
				<stop offset="1" style="stop-color:#FFC773"></stop>
			</linearGradient>
			<path class="st14" d="M69.7,545.7c-10.3-7.2-11.4-20.5-8.9-31.4c2.8-12.2,13-22.1,27.2-26.8c2.2,8.2,9.3,15.9,8,32.7
				C95,533.6,83.5,548.7,69.7,545.7z"></path>
			
				<linearGradient id="SVGID_15_" gradientUnits="userSpaceOnUse" x1="-69.2803" y1="-1360.429" x2="605.5922" y2="-1562.8901" gradientTransform="matrix(1 0 0 -1 0 -814)">
				<stop offset="0" style="stop-color:#E16A2B"></stop>
				<stop offset="3.030000e-02" style="stop-color:#FFDA82"></stop>
				<stop offset="6.670000e-02" style="stop-color:#FFBD67"></stop>
				<stop offset="0.1326" style="stop-color:#FFEB99"></stop>
				<stop offset="0.2242" style="stop-color:#FFC870"></stop>
				<stop offset="0.4696" style="stop-color:#FFF29B"></stop>
				<stop offset="0.6163" style="stop-color:#C8803F"></stop>
				<stop offset="0.7569" style="stop-color:#FFC870"></stop>
				<stop offset="1" style="stop-color:#FFC773"></stop>
			</linearGradient>
			<path class="st15" d="M92.1,601.3c-9.3,8.8-22.8,7.1-33.2,2.3c-11.6-5.3-19.4-17.6-21.1-32.8c8.7-0.4,17.8-6,34.3-1.1
				C85.4,573.6,98,588.2,92.1,601.3z"></path>
			
				<linearGradient id="SVGID_16_" gradientUnits="userSpaceOnUse" x1="-61.6322" y1="-1334.9388" x2="613.238" y2="-1537.3993" gradientTransform="matrix(1 0 0 -1 0 -814)">
				<stop offset="0" style="stop-color:#E16A2B"></stop>
				<stop offset="3.030000e-02" style="stop-color:#FFDA82"></stop>
				<stop offset="6.670000e-02" style="stop-color:#FFBD67"></stop>
				<stop offset="0.1326" style="stop-color:#FFEB99"></stop>
				<stop offset="0.2242" style="stop-color:#FFC870"></stop>
				<stop offset="0.4696" style="stop-color:#FFF29B"></stop>
				<stop offset="0.6163" style="stop-color:#C8803F"></stop>
				<stop offset="0.7569" style="stop-color:#FFC870"></stop>
				<stop offset="1" style="stop-color:#FFC773"></stop>
			</linearGradient>
			<path class="st16" d="M98,600.6c-11.9-4.8-15.9-17.8-15.9-29.2c0-12.8,7.9-24.9,21-32.8c4,7.7,12.9,13.7,15.4,30.7
				C120.4,582.9,112.4,600.5,98,600.6z"></path>
			
				<linearGradient id="SVGID_17_" gradientUnits="userSpaceOnUse" x1="-81.5945" y1="-1401.4742" x2="593.2783" y2="-1603.9354" gradientTransform="matrix(1 0 0 -1 0 -814)">
				<stop offset="0" style="stop-color:#E16A2B"></stop>
				<stop offset="3.030000e-02" style="stop-color:#FFDA82"></stop>
				<stop offset="6.670000e-02" style="stop-color:#FFBD67"></stop>
				<stop offset="0.1326" style="stop-color:#FFEB99"></stop>
				<stop offset="0.2242" style="stop-color:#FFC870"></stop>
				<stop offset="0.4696" style="stop-color:#FFF29B"></stop>
				<stop offset="0.6163" style="stop-color:#C8803F"></stop>
				<stop offset="0.7569" style="stop-color:#FFC870"></stop>
				<stop offset="1" style="stop-color:#FFC773"></stop>
			</linearGradient>
			<path class="st17" d="M134.3,654.6c-8,10-21.6,10.2-32.5,7c-12.3-3.6-21.7-14.7-25.5-29.4c8.5-1.7,16.8-8.5,33.8-6
				C123.6,628.1,138.2,640.8,134.3,654.6z"></path>
			
				<linearGradient id="SVGID_18_" gradientUnits="userSpaceOnUse" x1="-72.9651" y1="-1372.7075" x2="601.9109" y2="-1575.1697" gradientTransform="matrix(1 0 0 -1 0 -814)">
				<stop offset="0" style="stop-color:#E16A2B"></stop>
				<stop offset="3.030000e-02" style="stop-color:#FFDA82"></stop>
				<stop offset="6.670000e-02" style="stop-color:#FFBD67"></stop>
				<stop offset="0.1326" style="stop-color:#FFEB99"></stop>
				<stop offset="0.2242" style="stop-color:#FFC870"></stop>
				<stop offset="0.4696" style="stop-color:#FFF29B"></stop>
				<stop offset="0.6163" style="stop-color:#C8803F"></stop>
				<stop offset="0.7569" style="stop-color:#FFC870"></stop>
				<stop offset="1" style="stop-color:#FFC773"></stop>
			</linearGradient>
			<path class="st18" d="M140,653.1c-12.4-3.1-18.3-15.3-20-26.6c-1.8-12.7,4.3-25.8,16.1-35.5c5.1,7,14.7,11.7,19.6,28.2
				C159.7,632.3,154.2,650.9,140,653.1z"></path>
			
				<linearGradient id="SVGID_19_" gradientUnits="userSpaceOnUse" x1="-91.2962" y1="-1433.8175" x2="583.5746" y2="-1636.2781" gradientTransform="matrix(1 0 0 -1 0 -814)">
				<stop offset="0" style="stop-color:#E16A2B"></stop>
				<stop offset="3.030000e-02" style="stop-color:#FFDA82"></stop>
				<stop offset="6.670000e-02" style="stop-color:#FFBD67"></stop>
				<stop offset="0.1326" style="stop-color:#FFEB99"></stop>
				<stop offset="0.2242" style="stop-color:#FFC870"></stop>
				<stop offset="0.4696" style="stop-color:#FFF29B"></stop>
				<stop offset="0.6163" style="stop-color:#C8803F"></stop>
				<stop offset="0.7569" style="stop-color:#FFC870"></stop>
				<stop offset="1" style="stop-color:#FFC773"></stop>
			</linearGradient>
			<path class="st19" d="M179.8,701c-7.2,10.9-21,12.3-32.4,10c-12.8-2.6-23.3-13-28.6-27.6c8.5-2.5,16.3-10.1,33.8-9.1
				C166.6,675,182.6,686.6,179.8,701z"></path>
			
				<linearGradient id="SVGID_20_" gradientUnits="userSpaceOnUse" x1="-81.9822" y1="-1402.7711" x2="592.8902" y2="-1605.2323" gradientTransform="matrix(1 0 0 -1 0 -814)">
				<stop offset="0" style="stop-color:#E16A2B"></stop>
				<stop offset="3.030000e-02" style="stop-color:#FFDA82"></stop>
				<stop offset="6.670000e-02" style="stop-color:#FFBD67"></stop>
				<stop offset="0.1326" style="stop-color:#FFEB99"></stop>
				<stop offset="0.2242" style="stop-color:#FFC870"></stop>
				<stop offset="0.4696" style="stop-color:#FFF29B"></stop>
				<stop offset="0.6163" style="stop-color:#C8803F"></stop>
				<stop offset="0.7569" style="stop-color:#FFC870"></stop>
				<stop offset="1" style="stop-color:#FFC773"></stop>
			</linearGradient>
			<path class="st20" d="M185.5,698.9c-12.9-2-20-13.9-22.6-25.3c-3-12.7,2-26.6,13.2-37.5c5.8,6.7,16,10.6,22.4,26.9
				C203.6,676.1,199.8,695.4,185.5,698.9z"></path>
			
				<linearGradient id="SVGID_21_" gradientUnits="userSpaceOnUse" x1="-97.3768" y1="-1454.0845" x2="577.4979" y2="-1656.5464" gradientTransform="matrix(1 0 0 -1 0 -814)">
				<stop offset="0" style="stop-color:#E16A2B"></stop>
				<stop offset="3.030000e-02" style="stop-color:#FFDA82"></stop>
				<stop offset="6.670000e-02" style="stop-color:#FFBD67"></stop>
				<stop offset="0.1326" style="stop-color:#FFEB99"></stop>
				<stop offset="0.2242" style="stop-color:#FFC870"></stop>
				<stop offset="0.4696" style="stop-color:#FFF29B"></stop>
				<stop offset="0.6163" style="stop-color:#C8803F"></stop>
				<stop offset="0.7569" style="stop-color:#FFC870"></stop>
				<stop offset="1" style="stop-color:#FFC773"></stop>
			</linearGradient>
			<path class="st21" d="M238.5,734.1c-4.7,12.2-17.8,16.6-29.5,16.9c-13,0.3-25.6-7.5-33.9-20.7c7.8-4.3,13.7-13.4,31-16.3
				C219.9,711.6,238,719.4,238.5,734.1z"></path>
			
				<linearGradient id="SVGID_22_" gradientUnits="userSpaceOnUse" x1="-87.211" y1="-1420.1971" x2="587.6608" y2="-1622.6581" gradientTransform="matrix(1 0 0 -1 0 -814)">
				<stop offset="0" style="stop-color:#E16A2B"></stop>
				<stop offset="3.030000e-02" style="stop-color:#FFDA82"></stop>
				<stop offset="6.670000e-02" style="stop-color:#FFBD67"></stop>
				<stop offset="0.1326" style="stop-color:#FFEB99"></stop>
				<stop offset="0.2242" style="stop-color:#FFC870"></stop>
				<stop offset="0.4696" style="stop-color:#FFF29B"></stop>
				<stop offset="0.6163" style="stop-color:#C8803F"></stop>
				<stop offset="0.7569" style="stop-color:#FFC870"></stop>
				<stop offset="1" style="stop-color:#FFC773"></stop>
			</linearGradient>
			<path class="st22" d="M243.6,730.8c-13,0.9-22.5-9.2-27.6-19.7c-5.7-11.7-3.9-26.4,4.6-39.5c7.1,5.3,17.9,6.8,27.8,21.3
				C256.3,704.6,256.7,724.3,243.6,730.8z"></path>
			
				<linearGradient id="SVGID_23_" gradientUnits="userSpaceOnUse" x1="-26.1816" y1="-1216.7672" x2="648.6927" y2="-1419.2289" gradientTransform="matrix(1 0 0 -1 0 -814)">
				<stop offset="0" style="stop-color:#E16A2B"></stop>
				<stop offset="3.030000e-02" style="stop-color:#FFDA82"></stop>
				<stop offset="6.670000e-02" style="stop-color:#FFBD67"></stop>
				<stop offset="0.1326" style="stop-color:#FFEB99"></stop>
				<stop offset="0.2242" style="stop-color:#FFC870"></stop>
				<stop offset="0.4696" style="stop-color:#FFF29B"></stop>
				<stop offset="0.6163" style="stop-color:#C8803F"></stop>
				<stop offset="0.7569" style="stop-color:#FFC870"></stop>
				<stop offset="1" style="stop-color:#FFC773"></stop>
			</linearGradient>
			<path class="st23" d="M669.5,320.4l0.6,10.8c0.2,3.6,0.5,7.2,0.5,10.8l0.5,21.6l-0.2,21.6c-0.2,7.2-0.6,14.4-0.9,21.5
				c-1.7,28.7-5.5,57.3-12,85.2l-2.5,10.4l-0.6,2.6l-0.7,2.6l-1.5,5.2c-1,3.4-1.9,6.9-3,10.3l-3.4,10.2c-0.6,1.7-1.1,3.4-1.7,5.1
				l-1.9,5c-1.3,3.3-2.5,6.7-3.9,10c-2.9,6.5-5.6,13.2-8.8,19.6c-3,6.5-6.5,12.7-9.9,19c-3.7,6.1-7.2,12.3-11.2,18.2
				c-7.9,11.9-16.5,23.3-26,34c-18.9,21.4-40.9,39.9-64.9,55.4c-6,3.8-12.1,7.6-18.4,11c-3.1,1.8-6.3,3.5-9.4,5.2l-9.6,4.9
				c-12.8,6.5-25.9,12.3-39.2,17.8c-26.7,10.7-54.1,19.4-82,26.5c-13.9,3.6-28,6.8-42.1,9.8c-14.1,3-28.3,5.8-42.5,9.1l2.1,9.1
				c14-3.2,28.2-6.1,42.4-9.1c14.2-3.1,28.3-6.4,42.4-10c28.2-7.2,56-16.1,83-27c13.5-5.6,26.8-11.5,39.8-18.2l9.7-5
				c3.2-1.7,6.4-3.5,9.6-5.3c6.4-3.6,12.6-7.4,18.8-11.4c24.6-15.9,47.2-35.1,66.6-57.1c9.7-11,18.5-22.7,26.6-35
				c4.1-6.1,7.7-12.4,11.5-18.7c3.5-6.5,7-12.8,10.1-19.5c3.3-6.5,6-13.3,9-20c1.4-3.4,2.6-6.8,3.9-10.2l1.9-5.1
				c0.6-1.7,1.2-3.5,1.8-5.2l3.4-10.4c1.1-3.5,2-7,3.1-10.5l1.5-5.3l0.7-2.6l0.6-2.7l2.6-10.6c6.6-28.4,10.3-57.5,12-86.5
				c0.3-7.3,0.7-14.5,0.9-21.8l0.2-21.8l-0.5-21.8c0-3.6-0.4-7.3-0.5-10.9l-0.6-10.9c-0.2-3.7-2-6.6-4.1-6.4
				C670.8,313.7,669.3,316.8,669.5,320.4z"></path>
			
				<linearGradient id="SVGID_24_" gradientUnits="userSpaceOnUse" x1="61.1287" y1="-925.7719" x2="736.0013" y2="-1128.2332" gradientTransform="matrix(1 0 0 -1 0 -814)">
				<stop offset="0" style="stop-color:#E16A2B"></stop>
				<stop offset="3.030000e-02" style="stop-color:#FFDA82"></stop>
				<stop offset="6.670000e-02" style="stop-color:#FFBD67"></stop>
				<stop offset="0.1326" style="stop-color:#FFEB99"></stop>
				<stop offset="0.2242" style="stop-color:#FFC870"></stop>
				<stop offset="0.4696" style="stop-color:#FFF29B"></stop>
				<stop offset="0.6163" style="stop-color:#C8803F"></stop>
				<stop offset="0.7569" style="stop-color:#FFC870"></stop>
				<stop offset="1" style="stop-color:#FFC773"></stop>
			</linearGradient>
			<path class="st24" d="M677.3,322.5c10.3-5.7,12.7-18.1,11.4-28.5c-1.4-11.7-10-22-22.8-27.8c-2.9,7.5-10.3,14-10.7,29.8
				C654.8,308.6,664.1,323.9,677.3,322.5z"></path>
			
				<linearGradient id="SVGID_25_" gradientUnits="userSpaceOnUse" x1="48.4338" y1="-968.0536" x2="723.3069" y2="-1170.5149" gradientTransform="matrix(1 0 0 -1 0 -814)">
				<stop offset="0" style="stop-color:#E16A2B"></stop>
				<stop offset="3.030000e-02" style="stop-color:#FFDA82"></stop>
				<stop offset="6.670000e-02" style="stop-color:#FFBD67"></stop>
				<stop offset="0.1326" style="stop-color:#FFEB99"></stop>
				<stop offset="0.2242" style="stop-color:#FFC870"></stop>
				<stop offset="0.4696" style="stop-color:#FFF29B"></stop>
				<stop offset="0.6163" style="stop-color:#C8803F"></stop>
				<stop offset="0.7569" style="stop-color:#FFC870"></stop>
				<stop offset="1" style="stop-color:#FFC773"></stop>
			</linearGradient>
			<path class="st25" d="M678.6,372.4c11.6,2.5,21.4-5.3,27.4-14c6.6-9.8,6.9-23.2,1.1-36c-7.1,3.8-16.9,3.8-27.7,15.4
				C670.7,347.2,667.7,364.8,678.6,372.4z"></path>
			
				<linearGradient id="SVGID_26_" gradientUnits="userSpaceOnUse" x1="43.9313" y1="-983.0676" x2="718.7968" y2="-1185.5269" gradientTransform="matrix(1 0 0 -1 0 -814)">
				<stop offset="0" style="stop-color:#E16A2B"></stop>
				<stop offset="3.030000e-02" style="stop-color:#FFDA82"></stop>
				<stop offset="6.670000e-02" style="stop-color:#FFBD67"></stop>
				<stop offset="0.1326" style="stop-color:#FFEB99"></stop>
				<stop offset="0.2242" style="stop-color:#FFC870"></stop>
				<stop offset="0.4696" style="stop-color:#FFF29B"></stop>
				<stop offset="0.6163" style="stop-color:#C8803F"></stop>
				<stop offset="0.7569" style="stop-color:#FFC870"></stop>
				<stop offset="1" style="stop-color:#FFC773"></stop>
			</linearGradient>
			<path class="st26" d="M673.6,374.6c7.1-9.5,4.1-21.7-1.3-30.7c-6.1-10.1-18.1-16-32.2-16c0.5,8-3.7,17,2.5,31.6
				C647.4,371.3,662.1,381.4,673.6,374.6z"></path>
			
				<linearGradient id="SVGID_27_" gradientUnits="userSpaceOnUse" x1="32.999" y1="-1019.5004" x2="707.8729" y2="-1221.962" gradientTransform="matrix(1 0 0 -1 0 -814)">
				<stop offset="0" style="stop-color:#E16A2B"></stop>
				<stop offset="3.030000e-02" style="stop-color:#FFDA82"></stop>
				<stop offset="6.670000e-02" style="stop-color:#FFBD67"></stop>
				<stop offset="0.1326" style="stop-color:#FFEB99"></stop>
				<stop offset="0.2242" style="stop-color:#FFC870"></stop>
				<stop offset="0.4696" style="stop-color:#FFF29B"></stop>
				<stop offset="0.6163" style="stop-color:#C8803F"></stop>
				<stop offset="0.7569" style="stop-color:#FFC870"></stop>
				<stop offset="1" style="stop-color:#FFC773"></stop>
			</linearGradient>
			<path class="st27" d="M675,427.3c11.6,3.4,22.2-3.7,28.9-12.2c7.5-9.4,8.8-23,3.8-36.5c-7.5,3.3-17.5,2.5-29.3,13.6
				C668.9,401.1,664.5,418.8,675,427.3z"></path>
			
				<linearGradient id="SVGID_28_" gradientUnits="userSpaceOnUse" x1="29.16" y1="-1032.3036" x2="704.0316" y2="-1234.7645" gradientTransform="matrix(1 0 0 -1 0 -814)">
				<stop offset="0" style="stop-color:#E16A2B"></stop>
				<stop offset="3.030000e-02" style="stop-color:#FFDA82"></stop>
				<stop offset="6.670000e-02" style="stop-color:#FFBD67"></stop>
				<stop offset="0.1326" style="stop-color:#FFEB99"></stop>
				<stop offset="0.2242" style="stop-color:#FFC870"></stop>
				<stop offset="0.4696" style="stop-color:#FFF29B"></stop>
				<stop offset="0.6163" style="stop-color:#C8803F"></stop>
				<stop offset="0.7569" style="stop-color:#FFC870"></stop>
				<stop offset="1" style="stop-color:#FFC773"></stop>
			</linearGradient>
			<path class="st28" d="M669.7,429.3c7.9-9.1,5.9-21.7,1-31.3c-5.4-10.8-17.2-17.6-31.6-18.8c-0.1,8.2-5,17,0.1,32.3
				C643.3,423.9,657.5,435.2,669.7,429.3z"></path>
			
				<linearGradient id="SVGID_29_" gradientUnits="userSpaceOnUse" x1="16.1398" y1="-1075.6931" x2="691.0143" y2="-1278.1548" gradientTransform="matrix(1 0 0 -1 0 -814)">
				<stop offset="0" style="stop-color:#E16A2B"></stop>
				<stop offset="3.030000e-02" style="stop-color:#FFDA82"></stop>
				<stop offset="6.670000e-02" style="stop-color:#FFBD67"></stop>
				<stop offset="0.1326" style="stop-color:#FFEB99"></stop>
				<stop offset="0.2242" style="stop-color:#FFC870"></stop>
				<stop offset="0.4696" style="stop-color:#FFF29B"></stop>
				<stop offset="0.6163" style="stop-color:#C8803F"></stop>
				<stop offset="0.7569" style="stop-color:#FFC870"></stop>
				<stop offset="1" style="stop-color:#FFC773"></stop>
			</linearGradient>
			<path class="st29" d="M667,485.3c11.2,5,22.9-0.9,30.8-8.5c8.8-8.6,11.9-22.1,8.6-36.4c-8,2.4-18,0.3-31.5,9.9
				C664.3,458,657.5,475.3,667,485.3z"></path>
			
				<linearGradient id="SVGID_30_" gradientUnits="userSpaceOnUse" x1="13.6457" y1="-1084.0145" x2="688.5176" y2="-1286.4756" gradientTransform="matrix(1 0 0 -1 0 -814)">
				<stop offset="0" style="stop-color:#E16A2B"></stop>
				<stop offset="3.030000e-02" style="stop-color:#FFDA82"></stop>
				<stop offset="6.670000e-02" style="stop-color:#FFBD67"></stop>
				<stop offset="0.1326" style="stop-color:#FFEB99"></stop>
				<stop offset="0.2242" style="stop-color:#FFC870"></stop>
				<stop offset="0.4696" style="stop-color:#FFF29B"></stop>
				<stop offset="0.6163" style="stop-color:#C8803F"></stop>
				<stop offset="0.7569" style="stop-color:#FFC870"></stop>
				<stop offset="1" style="stop-color:#FFC773"></stop>
			</linearGradient>
			<path class="st30" d="M661.5,486.5c9.2-8.1,8.8-21.2,5.1-31.6c-4.1-11.6-15.1-20.1-29.5-23.1c-1.2,8.3-7.3,16.5-4.1,32.7
				C635.5,477.6,648.4,491,661.5,486.5z"></path>
			
				<linearGradient id="SVGID_31_" gradientUnits="userSpaceOnUse" x1="-1.9749" y1="-1136.0835" x2="672.898" y2="-1338.5447" gradientTransform="matrix(1 0 0 -1 0 -814)">
				<stop offset="0" style="stop-color:#E16A2B"></stop>
				<stop offset="3.030000e-02" style="stop-color:#FFDA82"></stop>
				<stop offset="6.670000e-02" style="stop-color:#FFBD67"></stop>
				<stop offset="0.1326" style="stop-color:#FFEB99"></stop>
				<stop offset="0.2242" style="stop-color:#FFC870"></stop>
				<stop offset="0.4696" style="stop-color:#FFF29B"></stop>
				<stop offset="0.6163" style="stop-color:#C8803F"></stop>
				<stop offset="0.7569" style="stop-color:#FFC870"></stop>
				<stop offset="1" style="stop-color:#FFC773"></stop>
			</linearGradient>
			<path class="st31" d="M651.4,545c10.8,6.3,23.3,1.8,32.2-5.1c9.9-7.6,14.7-21.1,13-35.9c-8.4,1.5-18.3-1.8-33,6.4
				C651.7,517,642.9,533.8,651.4,545z"></path>
			
				<linearGradient id="SVGID_32_" gradientUnits="userSpaceOnUse" x1="-3.0941" y1="-1139.8156" x2="671.7783" y2="-1342.2766" gradientTransform="matrix(1 0 0 -1 0 -814)">
				<stop offset="0" style="stop-color:#E16A2B"></stop>
				<stop offset="3.030000e-02" style="stop-color:#FFDA82"></stop>
				<stop offset="6.670000e-02" style="stop-color:#FFBD67"></stop>
				<stop offset="0.1326" style="stop-color:#FFEB99"></stop>
				<stop offset="0.2242" style="stop-color:#FFC870"></stop>
				<stop offset="0.4696" style="stop-color:#FFF29B"></stop>
				<stop offset="0.6163" style="stop-color:#C8803F"></stop>
				<stop offset="0.7569" style="stop-color:#FFC870"></stop>
				<stop offset="1" style="stop-color:#FFC773"></stop>
			</linearGradient>
			<path class="st32" d="M645.5,545.7c10.3-7.2,11.4-20.5,8.9-31.4c-2.8-12.2-13-22.1-27.2-26.8c-2.2,8.2-9.3,15.9-8,32.7
				C620.3,533.6,631.8,548.7,645.5,545.7z"></path>
			
				<linearGradient id="SVGID_33_" gradientUnits="userSpaceOnUse" x1="-21.1168" y1="-1199.8687" x2="653.7587" y2="-1402.3308" gradientTransform="matrix(1 0 0 -1 0 -814)">
				<stop offset="0" style="stop-color:#E16A2B"></stop>
				<stop offset="3.030000e-02" style="stop-color:#FFDA82"></stop>
				<stop offset="6.670000e-02" style="stop-color:#FFBD67"></stop>
				<stop offset="0.1326" style="stop-color:#FFEB99"></stop>
				<stop offset="0.2242" style="stop-color:#FFC870"></stop>
				<stop offset="0.4696" style="stop-color:#FFF29B"></stop>
				<stop offset="0.6163" style="stop-color:#C8803F"></stop>
				<stop offset="0.7569" style="stop-color:#FFC870"></stop>
				<stop offset="1" style="stop-color:#FFC773"></stop>
			</linearGradient>
			<path class="st33" d="M623.2,601.3c9.3,8.8,22.8,7.1,33.2,2.3c11.6-5.3,19.4-17.6,21.1-32.8c-8.7-0.4-17.8-6-34.3-1.1
				C629.9,573.6,617.3,588.2,623.2,601.3z"></path>
			
				<linearGradient id="SVGID_34_" gradientUnits="userSpaceOnUse" x1="-19.27" y1="-1193.7397" x2="655.598" y2="-1396.1996" gradientTransform="matrix(1 0 0 -1 0 -814)">
				<stop offset="0" style="stop-color:#E16A2B"></stop>
				<stop offset="3.030000e-02" style="stop-color:#FFDA82"></stop>
				<stop offset="6.670000e-02" style="stop-color:#FFBD67"></stop>
				<stop offset="0.1326" style="stop-color:#FFEB99"></stop>
				<stop offset="0.2242" style="stop-color:#FFC870"></stop>
				<stop offset="0.4696" style="stop-color:#FFF29B"></stop>
				<stop offset="0.6163" style="stop-color:#C8803F"></stop>
				<stop offset="0.7569" style="stop-color:#FFC870"></stop>
				<stop offset="1" style="stop-color:#FFC773"></stop>
			</linearGradient>
			<path class="st34" d="M617.2,600.6c11.9-4.8,15.9-17.8,15.9-29.2c0-12.8-7.9-24.9-21-32.8c-4,7.7-12.9,13.7-15.4,30.7
				C594.8,582.9,602.9,600.5,617.2,600.6z"></path>
			
				<linearGradient id="SVGID_35_" gradientUnits="userSpaceOnUse" x1="-40.3915" y1="-1264.136" x2="634.4802" y2="-1466.5969" gradientTransform="matrix(1 0 0 -1 0 -814)">
				<stop offset="0" style="stop-color:#E16A2B"></stop>
				<stop offset="3.030000e-02" style="stop-color:#FFDA82"></stop>
				<stop offset="6.670000e-02" style="stop-color:#FFBD67"></stop>
				<stop offset="0.1326" style="stop-color:#FFEB99"></stop>
				<stop offset="0.2242" style="stop-color:#FFC870"></stop>
				<stop offset="0.4696" style="stop-color:#FFF29B"></stop>
				<stop offset="0.6163" style="stop-color:#C8803F"></stop>
				<stop offset="0.7569" style="stop-color:#FFC870"></stop>
				<stop offset="1" style="stop-color:#FFC773"></stop>
			</linearGradient>
			<path class="st35" d="M581,654.6c8,10,21.6,10.2,32.5,7c12.3-3.6,21.7-14.7,25.5-29.4c-8.5-1.7-16.8-8.5-33.8-6
				C591.7,628.1,577.1,640.8,581,654.6z"></path>
			
				<linearGradient id="SVGID_36_" gradientUnits="userSpaceOnUse" x1="-36.7224" y1="-1251.913" x2="638.1469" y2="-1454.373" gradientTransform="matrix(1 0 0 -1 0 -814)">
				<stop offset="0" style="stop-color:#E16A2B"></stop>
				<stop offset="3.030000e-02" style="stop-color:#FFDA82"></stop>
				<stop offset="6.670000e-02" style="stop-color:#FFBD67"></stop>
				<stop offset="0.1326" style="stop-color:#FFEB99"></stop>
				<stop offset="0.2242" style="stop-color:#FFC870"></stop>
				<stop offset="0.4696" style="stop-color:#FFF29B"></stop>
				<stop offset="0.6163" style="stop-color:#C8803F"></stop>
				<stop offset="0.7569" style="stop-color:#FFC870"></stop>
				<stop offset="1" style="stop-color:#FFC773"></stop>
			</linearGradient>
			<path class="st36" d="M575.3,653.1c12.4-3.1,18.3-15.3,20-26.6c1.8-12.7-4.3-25.8-16.1-35.5c-5.1,7-14.7,11.7-19.6,28.2
				C555.6,632.3,561.1,650.9,575.3,653.1z"></path>
			
				<linearGradient id="SVGID_37_" gradientUnits="userSpaceOnUse" x1="-57.4292" y1="-1320.9054" x2="617.4464" y2="-1523.3676" gradientTransform="matrix(1 0 0 -1 0 -814)">
				<stop offset="0" style="stop-color:#E16A2B"></stop>
				<stop offset="3.030000e-02" style="stop-color:#FFDA82"></stop>
				<stop offset="6.670000e-02" style="stop-color:#FFBD67"></stop>
				<stop offset="0.1326" style="stop-color:#FFEB99"></stop>
				<stop offset="0.2242" style="stop-color:#FFC870"></stop>
				<stop offset="0.4696" style="stop-color:#FFF29B"></stop>
				<stop offset="0.6163" style="stop-color:#C8803F"></stop>
				<stop offset="0.7569" style="stop-color:#FFC870"></stop>
				<stop offset="1" style="stop-color:#FFC773"></stop>
			</linearGradient>
			<path class="st37" d="M535.5,701c7.2,10.9,21,12.3,32.4,10c12.8-2.6,23.3-13,28.6-27.6c-8.5-2.5-16.3-10.1-33.8-9.1
				C548.6,675,532.7,686.6,535.5,701z"></path>
			
				<linearGradient id="SVGID_38_" gradientUnits="userSpaceOnUse" x1="-52.7503" y1="-1305.3274" x2="622.1229" y2="-1507.7887" gradientTransform="matrix(1 0 0 -1 0 -814)">
				<stop offset="0" style="stop-color:#E16A2B"></stop>
				<stop offset="3.030000e-02" style="stop-color:#FFDA82"></stop>
				<stop offset="6.670000e-02" style="stop-color:#FFBD67"></stop>
				<stop offset="0.1326" style="stop-color:#FFEB99"></stop>
				<stop offset="0.2242" style="stop-color:#FFC870"></stop>
				<stop offset="0.4696" style="stop-color:#FFF29B"></stop>
				<stop offset="0.6163" style="stop-color:#C8803F"></stop>
				<stop offset="0.7569" style="stop-color:#FFC870"></stop>
				<stop offset="1" style="stop-color:#FFC773"></stop>
			</linearGradient>
			<path class="st38" d="M529.8,698.9c12.9-2,20-13.9,22.6-25.3c3-12.7-2-26.6-13.2-37.5c-5.8,6.7-16,10.6-22.4,26.9
				C511.6,676.1,515.5,695.4,529.8,698.9z"></path>
			
				<linearGradient id="SVGID_39_" gradientUnits="userSpaceOnUse" x1="-73.0187" y1="-1372.8964" x2="601.8518" y2="-1575.3569" gradientTransform="matrix(1 0 0 -1 0 -814)">
				<stop offset="0" style="stop-color:#E16A2B"></stop>
				<stop offset="3.030000e-02" style="stop-color:#FFDA82"></stop>
				<stop offset="6.670000e-02" style="stop-color:#FFBD67"></stop>
				<stop offset="0.1326" style="stop-color:#FFEB99"></stop>
				<stop offset="0.2242" style="stop-color:#FFC870"></stop>
				<stop offset="0.4696" style="stop-color:#FFF29B"></stop>
				<stop offset="0.6163" style="stop-color:#C8803F"></stop>
				<stop offset="0.7569" style="stop-color:#FFC870"></stop>
				<stop offset="1" style="stop-color:#FFC773"></stop>
			</linearGradient>
			<path class="st39" d="M476.8,734.1c4.7,12.2,17.8,16.6,29.5,16.9c13,0.3,25.6-7.5,33.9-20.7c-7.8-4.3-13.7-13.4-31-16.3
				C495.3,711.6,477.3,719.4,476.8,734.1z"></path>
			
				<linearGradient id="SVGID_40_" gradientUnits="userSpaceOnUse" x1="-66.2724" y1="-1350.3961" x2="608.6016" y2="-1552.8578" gradientTransform="matrix(1 0 0 -1 0 -814)">
				<stop offset="0" style="stop-color:#E16A2B"></stop>
				<stop offset="3.030000e-02" style="stop-color:#FFDA82"></stop>
				<stop offset="6.670000e-02" style="stop-color:#FFBD67"></stop>
				<stop offset="0.1326" style="stop-color:#FFEB99"></stop>
				<stop offset="0.2242" style="stop-color:#FFC870"></stop>
				<stop offset="0.4696" style="stop-color:#FFF29B"></stop>
				<stop offset="0.6163" style="stop-color:#C8803F"></stop>
				<stop offset="0.7569" style="stop-color:#FFC870"></stop>
				<stop offset="1" style="stop-color:#FFC773"></stop>
			</linearGradient>
			<path class="st40" d="M471.7,730.8c13,0.9,22.5-9.2,27.6-19.7c5.7-11.7,3.9-26.4-4.6-39.5c-7.1,5.3-17.9,6.8-27.8,21.3
				C459,704.6,458.6,724.3,471.7,730.8z"></path>
			<g>
				<path class="st4" d="M40.8,313.2c-1.1-4.2-0.3-17.6,2-26.2c2.3-8.8,3.3-6.4,3.3-6.4S41.9,319.1,40.8,313.2z"></path>
				<path class="st4" d="M31.8,362.5c-9.2-3.8-19.3-21.1-19.3-30.6C16.7,341.7,29,361.5,31.8,362.5z"></path>
				<path class="st4" d="M48.8,365c0.9-0.9,14.5-25.6,20.5-29.7C70.3,337.6,54.8,364.1,48.8,365z"></path>
				<path class="st4" d="M34.5,417.7c-9.6-3.1-21.2-20-21.9-29.7C17.5,397.7,31.6,416.9,34.5,417.7z"></path>
				<path class="st4" d="M52.1,418.9c0.9-1,12.8-27.1,18.6-31.8C71.8,389.4,58.1,417.5,52.1,418.9z"></path>
				<path class="st4" d="M41.2,476.3c-10.1-1.9-24.1-17.5-26.1-27.1C21.3,458.2,38.1,475.9,41.2,476.3z"></path>
				<path class="st4" d="M59.1,475.3c0.8-1.2,9.4-29.1,14.7-34.5C75.1,442.8,65,473,59.1,475.3z"></path>
				<path class="st4" d="M55.7,536.7c-10.5-0.8-26.4-14.9-29.6-24.5C33.5,520.7,52.5,536.7,55.7,536.7z"></path>
				<path class="st4" d="M73.7,533.6c0.6-1.3,6.2-30.6,10.9-36.7C86.3,498.8,79.5,530.7,73.7,533.6z"></path>
				<path class="st4" d="M82.1,594.9c-10.6,1.6-29.7-8.9-34.9-17.6C56.4,584.1,78.9,595.6,82.1,594.9z"></path>
				<path class="st4" d="M99.3,587.7c0.3-1.4-0.8-31.8,2.5-39C103.8,550.3,104.3,583.5,99.3,587.7z"></path>
				<path class="st4" d="M123.4,649.7c-10.3,3.1-30.6-4.5-37.1-12.5C96.4,642.6,120.4,650.9,123.4,649.7z"></path>
				<path class="st4" d="M139.4,640.1c0.1-1.4-5.4-31.4-3.1-38.9C138.6,602.4,143.8,635.2,139.4,640.1z"></path>
				<path class="st4" d="M168.3,696.9c-10.2,4.1-31.5-1.9-38.8-9.4C140.3,692.2,165.3,698.4,168.3,696.9z"></path>
				<path class="st4" d="M183.7,685.8c0-1.5-8.2-31.4-6.7-39.3C179.5,647.5,187.8,680.4,183.7,685.8z"></path>
				<path class="st4" d="M226.4,732.7c-9,6.2-31.2,5.1-39.9-0.6C198,734.2,223.8,734.8,226.4,732.7z"></path>
				<path class="st4" d="M239,718.4c-0.3-1.4-14.9-28.8-15.1-36.9C226.5,682.1,241.7,712.3,239,718.4z"></path>
				<path class="st4" d="M361.3,773.5c-1.2,0.3-2.5,0.6-3.7,0.9c2.9,0.7,5.8,1.5,8.7,2.2c4.7-1.6,9.4-4.1,13-6.3
					c-1.1-0.2-2.2-0.5-3.3-0.8C371.2,770.9,366.3,772.3,361.3,773.5z"></path>
				<path class="st4" d="M674.5,313.2c1.1-4.2,0.3-17.6-2-26.2c-2.3-8.8-3.3-6.4-3.3-6.4S673.4,319.1,674.5,313.2z"></path>
				<path class="st4" d="M683.5,362.5c9.2-3.8,19.3-21.1,19.3-30.6C698.6,341.7,686.3,361.5,683.5,362.5z"></path>
				<path class="st4" d="M666.4,365c-0.9-0.9-14.5-25.6-20.5-29.7C645,337.6,660.4,364.1,666.4,365z"></path>
				<path class="st4" d="M680.7,417.7c9.6-3.1,21.2-20,21.9-29.7C697.8,397.7,683.7,416.9,680.7,417.7z"></path>
				<path class="st4" d="M663.2,418.9c-0.9-1-12.8-27.1-18.6-31.8C643.5,389.4,657.2,417.5,663.2,418.9z"></path>
				<path class="st4" d="M674.1,476.3c10.1-1.9,24.1-17.5,26.1-27.1C693.9,458.2,677.2,475.9,674.1,476.3z"></path>
				<path class="st4" d="M656.2,475.3c-0.8-1.2-9.4-29.1-14.7-34.5C640.1,442.8,650.3,473,656.2,475.3z"></path>
				<path class="st4" d="M659.6,536.7c10.5-0.8,26.4-14.9,29.6-24.5C681.7,520.7,662.7,536.7,659.6,536.7z"></path>
				<path class="st4" d="M641.5,533.6c-0.6-1.3-6.2-30.6-10.9-36.7C629,498.8,635.8,530.7,641.5,533.6z"></path>
				<path class="st4" d="M633.2,594.9c10.6,1.6,29.7-8.9,34.9-17.6C658.9,584.1,636.4,595.6,633.2,594.9z"></path>
				<path class="st4" d="M616,587.7c-0.3-1.4,0.8-31.8-2.5-39C611.5,550.3,611,583.5,616,587.7z"></path>
				<path class="st4" d="M591.9,649.7c10.3,3.1,30.6-4.5,37.1-12.5C618.9,642.6,594.9,650.9,591.9,649.7z"></path>
				<path class="st4" d="M575.9,640.1c-0.1-1.4,5.4-31.4,3.1-38.9C576.7,602.4,571.5,635.2,575.9,640.1z"></path>
				<path class="st4" d="M547,696.9c10.2,4.1,31.5-1.9,38.8-9.4C575,692.2,549.9,698.4,547,696.9z"></path>
				<path class="st4" d="M531.5,685.8c0-1.5,8.2-31.4,6.7-39.3C535.7,647.5,527.5,680.4,531.5,685.8z"></path>
				<path class="st4" d="M488.9,732.7c9,6.2,31.2,5.1,39.9-0.6C517.3,734.2,491.5,734.8,488.9,732.7z"></path>
				<path class="st4" d="M476.3,718.4c0.3-1.4,14.9-28.8,15.1-36.9C488.8,682.1,473.6,712.3,476.3,718.4z"></path>
			</g>
		</g>
	</g>
	<g>
		<path class="st41" d="M215.4,79.2c-5.6,0-10.2-4.6-10.2-10.2c0-5.6,4.6-10.2,10.2-10.2s10.2,4.6,10.2,10.2
			C225.6,74.7,221,79.2,215.4,79.2z"></path>
		<path class="st42" d="M214.2,60.1c-4.3,0-7.8,3.5-7.8,7.8c0,4.3,3.5,7.8,7.8,7.8c4.3,0,7.8-3.5,7.8-7.8
			C222,63.6,218.5,60.1,214.2,60.1z"></path>
		<path class="st41" d="M282.8,77c-5.6,0-10.2-4.6-10.2-10.2s4.6-10.2,10.2-10.2S293,61.2,293,66.8C293,72.4,288.4,77,282.8,77z"></path>
		
			<linearGradient id="SVGID_41_" gradientUnits="userSpaceOnUse" x1="222.3202" y1="-859.8726" x2="509.9537" y2="-955.7501" gradientTransform="matrix(1 0 0 -1 0 -814)">
			<stop offset="0" style="stop-color:#E16A2B"></stop>
			<stop offset="3.030000e-02" style="stop-color:#FFDA82"></stop>
			<stop offset="6.670000e-02" style="stop-color:#FFBD67"></stop>
			<stop offset="0.1326" style="stop-color:#FFEB99"></stop>
			<stop offset="0.2242" style="stop-color:#FFC870"></stop>
			<stop offset="0.4696" style="stop-color:#FFF29B"></stop>
			<stop offset="0.5028" style="stop-color:#9C4518"></stop>
			<stop offset="0.7569" style="stop-color:#FFC870"></stop>
			<stop offset="1" style="stop-color:#FFC773"></stop>
		</linearGradient>
		<circle class="st43" cx="281.6" cy="65.6" r="7.8"></circle>
		<path class="st41" d="M502.6,79.2c-5.6,0-10.2-4.6-10.2-10.2c0-5.6,4.6-10.2,10.2-10.2c5.6,0,10.2,4.6,10.2,10.2
			C512.8,74.7,508.2,79.2,502.6,79.2z"></path>
		
			<linearGradient id="SVGID_42_" gradientUnits="userSpaceOnUse" x1="243.63" y1="-795.9308" x2="531.2687" y2="-891.8101" gradientTransform="matrix(1 0 0 -1 0 -814)">
			<stop offset="0" style="stop-color:#E16A2B"></stop>
			<stop offset="3.030000e-02" style="stop-color:#FFDA82"></stop>
			<stop offset="6.670000e-02" style="stop-color:#FFBD67"></stop>
			<stop offset="0.1326" style="stop-color:#FFEB99"></stop>
			<stop offset="0.2242" style="stop-color:#FFC870"></stop>
			<stop offset="0.4696" style="stop-color:#FFF29B"></stop>
			<stop offset="0.5028" style="stop-color:#9C4518"></stop>
			<stop offset="0.7569" style="stop-color:#FFC870"></stop>
			<stop offset="1" style="stop-color:#FFC773"></stop>
		</linearGradient>
		<path class="st44" d="M501.4,60.1c-4.3,0-7.8,3.5-7.8,7.8c0,4.3,3.5,7.8,7.8,7.8c4.3,0,7.8-3.5,7.8-7.8
			C509.2,63.6,505.7,60.1,501.4,60.1z"></path>
		<path class="st41" d="M435.2,77c-5.6,0-10.2-4.6-10.2-10.2s4.6-10.2,10.2-10.2s10.2,4.6,10.2,10.2C445.4,72.4,440.8,77,435.2,77z"></path>
		
			<linearGradient id="SVGID_43_" gradientUnits="userSpaceOnUse" x1="237.5616" y1="-814.1573" x2="525.1936" y2="-910.0343" gradientTransform="matrix(1 0 0 -1 0 -814)">
			<stop offset="0" style="stop-color:#E16A2B"></stop>
			<stop offset="3.030000e-02" style="stop-color:#FFDA82"></stop>
			<stop offset="6.670000e-02" style="stop-color:#FFBD67"></stop>
			<stop offset="0.1326" style="stop-color:#FFEB99"></stop>
			<stop offset="0.2242" style="stop-color:#FFC870"></stop>
			<stop offset="0.4696" style="stop-color:#FFF29B"></stop>
			<stop offset="0.5028" style="stop-color:#9C4518"></stop>
			<stop offset="0.7569" style="stop-color:#FFC870"></stop>
			<stop offset="1" style="stop-color:#FFC773"></stop>
		</linearGradient>
		<circle class="st45" cx="434" cy="65.6" r="7.8"></circle>
		<path class="st41" d="M359,24.3c-5.6,0-10.2-4.6-10.2-10.2S353.4,4,359,4c5.6,0,10.2,4.6,10.2,10.2
			C369.2,19.8,364.6,24.3,359,24.3z"></path>
		
			<linearGradient id="SVGID_44_" gradientUnits="userSpaceOnUse" x1="245.7395" y1="-789.6083" x2="533.3783" y2="-885.4876" gradientTransform="matrix(1 0 0 -1 0 -814)">
			<stop offset="0" style="stop-color:#E16A2B"></stop>
			<stop offset="3.030000e-02" style="stop-color:#FFDA82"></stop>
			<stop offset="6.670000e-02" style="stop-color:#FFBD67"></stop>
			<stop offset="0.1326" style="stop-color:#FFEB99"></stop>
			<stop offset="0.2242" style="stop-color:#FFC870"></stop>
			<stop offset="0.4696" style="stop-color:#FFF29B"></stop>
			<stop offset="0.5028" style="stop-color:#9C4518"></stop>
			<stop offset="0.7569" style="stop-color:#FFC870"></stop>
			<stop offset="1" style="stop-color:#FFC773"></stop>
		</linearGradient>
		<path class="st46" d="M357.8,20.8c4.3,0,7.8-3.5,7.8-7.8s-3.5-7.8-7.8-7.8c-4.3,0-7.8,3.5-7.8,7.8S353.5,20.8,357.8,20.8z"></path>
		<path class="st41" d="M460.4,166.8c-0.4,0-0.9-0.1-1.2-0.3c-0.4-0.2-35.9-21.4-100.2-21.4s-99.8,21.2-100.2,21.4
			c-0.4,0.2-0.8,0.3-1.2,0.3c-0.2,0-0.5,0-0.7-0.1c-0.7-0.2-1.2-0.7-1.5-1.3L219.9,83c-0.5-1.1-0.1-2.3,0.9-2.9
			c0.4-0.3,0.9-0.4,1.3-0.4c0.6,0,1.3,0.3,1.7,0.8c0.3,0.3,28.6,30.5,44.6,30.5c0,0,0,0,0,0c0.3,0,0.6,0,0.9,0
			c14.5-1.1,14.1-30.6,14.1-30.9c0-1,0.6-1.9,1.6-2.3c0.3-0.1,0.5-0.1,0.8-0.1c0.7,0,1.4,0.3,1.9,0.9c0.1,0.2,13.1,16.2,27.7,16.2
			c1.8,0,3.6-0.2,5.3-0.7c16-4.6,31.4-48.6,36.1-65.2c0.3-1,1.2-1.7,2.3-1.7c1.1,0,2,0.7,2.3,1.7c4.6,16.6,20.1,60.7,36.1,65.2
			c1.7,0.5,3.5,0.7,5.3,0.7c0,0,0,0,0,0c14.7,0,27.6-16.1,27.7-16.2c0.5-0.6,1.2-0.9,1.9-0.9c0.3,0,0.5,0,0.8,0.1
			c1,0.3,1.6,1.3,1.6,2.3c0,0.3-0.6,29.8,14.1,30.9c0.3,0,0.6,0,0.9,0c13.3,0,36.7-22,44.6-30.5c0.5-0.5,1.1-0.8,1.7-0.8
			c0.4,0,0.9,0.1,1.3,0.4c1,0.6,1.3,1.9,0.9,2.9l-35.6,82.4c-0.3,0.6-0.8,1.1-1.5,1.3C460.9,166.7,460.7,166.8,460.4,166.8z
			 M252.3,119.3c2.9,6.6,7.1,15.8,10.6,23.3c0.2-0.1,0.4-0.1,0.6-0.2c2.8-3.5,4.7-9.5,5.4-17.1c-0.5,0-1.1,0.1-1.6,0.1
			C261.2,125.3,256.4,122.6,252.3,119.3z M455.1,142.6c3.5-7.5,7.7-16.7,10.6-23.3c-4,3.3-8.9,6-15,6c-0.5,0-1.1,0-1.6-0.1
			c0.7,7.6,2.6,13.6,5.4,17.1C454.7,142.5,454.9,142.5,455.1,142.6z M435,136.8c2.4,0.6,4.7,1.2,7.1,1.9c-0.5-1.8-1-3.8-1.4-5.8
			C438.8,134.3,436.9,135.6,435,136.8z M277.4,132.9c-0.4,2-0.9,4-1.4,5.8c2.3-0.6,4.7-1.3,7.1-1.9
			C281.1,135.6,279.2,134.3,277.4,132.9z M426.3,105.8c-7.5,15-9.7,23.9-8.3,26.1c0.1,0.1,0.2,0.4,1,0.4c0.1,0,0.3,0,0.4,0
			c7.9-0.8,14.8-6.5,19-10.9C432.6,117.4,428.8,111.1,426.3,105.8z M279.7,121.4c4.2,4.3,11.1,10.1,19,10.9c0.1,0,0.3,0,0.4,0
			c0.7,0,0.9-0.2,1-0.4c1.3-2.2-0.8-11.1-8.3-26.1C289.3,111.1,285.4,117.4,279.7,121.4z M309.9,120.7c1.1,3.8,1.7,7,1.8,9.8
			c7.3-1.3,14.4-2.4,21.2-3.1c-2.6-1.2-5.5-2.3-8.3-3.1c-1.9-0.5-3.8-0.9-5.7-1.4C315.8,122.3,312.8,121.6,309.9,120.7z
			 M385.2,127.4c6.9,0.8,14,1.8,21.2,3.1c0-2.8,0.6-6.1,1.8-9.8c-2.9,0.8-5.9,1.5-8.9,2.2c-1.9,0.4-3.9,0.9-5.7,1.4
			C390.7,125.1,387.8,126.2,385.2,127.4z M364.2,125.9c2.5-10.2,8.1-21.9,12.8-29.1c-0.7-0.8-1.3-1.7-2-2.7
			c-3.7,7.8-8.7,19.7-11.5,31.8C363.7,125.8,363.9,125.8,364.2,125.9z M341.1,96.7c4.7,7.2,10.3,19,12.8,29.1c0.2,0,0.5,0,0.7,0
			c-2.8-12.1-7.8-24-11.5-31.8C342.4,95,341.8,95.9,341.1,96.7z M385.8,105.4c-2.3,3-4.4,7.1-6.3,12.1c5.2-2,11.2-3.3,17.1-4.5
			c6-1.2,11.8-2.4,16.2-4.3c0.6-1.2,1.1-2.4,1.8-3.6c-4.8,2.1-10.5,3.9-16.2,3.9c-2.5,0-4.9-0.3-7.2-1
			C389.4,107.5,387.6,106.6,385.8,105.4z M305.2,108.8c4.5,1.9,10.2,3.1,16.2,4.3c5.9,1.2,11.9,2.5,17.1,4.5
			c-1.9-5.1-4-9.2-6.3-12.1c-1.8,1.2-3.6,2.1-5.4,2.6c-2.3,0.7-4.7,1-7.2,1c-5.8,0-11.4-1.7-16.2-3.9
			C304,106.3,304.6,107.6,305.2,108.8z M350.8,81.2c3.7,7.9,6.4,18.1,8.2,25.9c1.8-7.8,4.5-18,8.2-25.9c-3.4-6.5-6.2-13.1-8.2-18.1
			C357,68.2,354.2,74.7,350.8,81.2z"></path>
		
			<linearGradient id="SVGID_45_" gradientUnits="userSpaceOnUse" x1="215.8605" y1="-879.2513" x2="503.4967" y2="-975.1299" gradientTransform="matrix(1 0 0 -1 0 -814)">
			<stop offset="0" style="stop-color:#E16A2B"></stop>
			<stop offset="3.030000e-02" style="stop-color:#FFDA82"></stop>
			<stop offset="6.670000e-02" style="stop-color:#FFBD67"></stop>
			<stop offset="0.1326" style="stop-color:#FFEB99"></stop>
			<stop offset="0.2242" style="stop-color:#FFC870"></stop>
			<stop offset="0.4696" style="stop-color:#FFF29B"></stop>
			<stop offset="0.6163" style="stop-color:#C8803F"></stop>
			<stop offset="0.7569" style="stop-color:#FFC870"></stop>
			<stop offset="1" style="stop-color:#FFC773"></stop>
		</linearGradient>
		<path class="st47" d="M447.4,112.1c-17.1-1.3-16.3-33.3-16.3-33.3S414,100.3,395.5,95c-20.7-5.9-37.7-66.9-37.7-66.9
			s-17,61-37.7,66.9c-18.4,5.3-35.6-16.3-35.6-16.3s0.8,32-16.3,33.3c-17.1,1.3-47.4-31.2-47.4-31.2l35.6,82.4
			c0,0,35.6-21.8,101.4-21.8c65.9,0,101.4,21.8,101.4,21.8l35.6-82.4C494.8,80.8,464.5,113.4,447.4,112.1z M368.7,80
			c-7,14.3-10.9,38.1-10.9,38.1S354,94.3,347,80c4.5-8.5,8.3-17.7,10.9-24.8C360.4,62.3,364.2,71.5,368.7,80z M263.7,143.3
			c-2.1,0.7-3.3,1.1-3.3,1.1s-15.1-32-15.1-34.8c5.9,5.5,12.7,13.5,23.3,12c0.5,0.5,1,1,1.5,1.6
			C269.7,129.2,268.3,138.1,263.7,143.3z M271,141c1.7-4.1,2.9-9.1,3.5-13.8c3.6,3.1,8.2,6.5,13.8,9.2
			C281.5,138.1,275.6,139.7,271,141z M297.3,133.5c-9.8-0.9-18.1-8.9-22.1-13.3c0-0.2,0-0.4,0-0.6c8.3-4.5,13-14.7,15.1-20.5
			C296.1,110,308,134.5,297.3,133.5z M307.8,132.3c0.8-4.4-0.6-10.4-2.9-16.5c5.7,2.2,12.6,3.4,19,5.1c5.6,1.4,11.7,4.5,15.9,7
			C328.7,128.8,317.8,130.4,307.8,132.3z M302.2,109.4c-1.9-4.2-4-8.1-5.7-11.2c6.4,3.9,18,9.4,28.5,6.3c2.2-0.6,4.3-1.9,6.4-3.5
			c4.7,5,7.9,13.1,10,20C331.1,114.7,313,114.3,302.2,109.4z M337,95.4c1.8-2.2,3.6-4.7,5.3-7.3c4.4,8.8,11.1,23.8,14.1,38.9
			c-1.8,0-3.7,0.1-5.5,0.1C348.4,115.7,341.6,102.1,337,95.4z M359.4,127c3-15.1,9.7-30.1,14.1-38.9c1.7,2.6,3.5,5.1,5.3,7.3
			c-4.7,6.7-11.5,20.3-13.9,31.7C363,127,361.2,127,359.4,127z M407.8,132.3c-10-1.9-20.8-3.5-32-4.5c4.2-2.4,10.3-5.5,15.9-7
			c6.4-1.6,13.3-2.9,19-5.1C408.5,121.9,407,127.9,407.8,132.3z M374.3,120.9c2.1-6.9,5.3-15,10-20c2.1,1.7,4.2,2.9,6.4,3.5
			c10.5,3.1,22.1-2.4,28.5-6.3c-1.7,3.1-3.8,7-5.7,11.2C402.7,114.3,384.6,114.7,374.3,120.9z M425.4,99c2.1,5.7,6.8,16,15.1,20.5
			c0,0.2,0,0.4,0,0.6c-4,4.5-12.3,12.4-22.1,13.3C407.7,134.5,419.5,110,425.4,99z M427.3,136.5c5.6-2.7,10.2-6,13.8-9.2
			c0.7,4.6,1.9,9.7,3.5,13.8C440.1,139.7,434.2,138.1,427.3,136.5z M455.2,144.3c0,0-1.1-0.4-3.3-1.1c-4.6-5.2-6-14-6.5-20.1
			c0.5-0.6,1-1.1,1.5-1.6c10.7,1.5,17.4-6.5,23.3-12C470.3,112.3,455.2,144.3,455.2,144.3z"></path>
	</g>
</g>
<g font-family="noto" id="svgTXT" font-size="60"><text x="50%" y="54.7%" fill="000000" text-anchor="middle" font-weight="bolder" style="fill: rgb(0, 0, 0);"></text></g><g font-family="noto" id="svgTXT2" font-size="60"><text x="50%" y="60.7%" fill="000000" text-anchor="middle" font-weight="bolder" style="fill: rgb(0, 0, 0);"></text></g></svg>
